#Comment line ignore any data following # character 
#Hierarchical Translation and Rotation (.htr) file 
[Header]	
#Header keywords are followed by a single value 
FileType HTR		#Single word string
DataType HTRS		#Translation followed by rotation and scale data
FileVersion 1		#integer
NumSegments 84		#integer
NumFrames 2		#integer
DataFrameRate 30		#integer, data frame rate in this file
EulerRotationOrder ZYX
CalibrationUnits mm
RotationUnits Degrees
GlobalAxisofGravity Y
BoneLengthAxis Y
ScaleFactor 1.00
[SegmentNames&Hierarchy]
#CHILD	PARENT
MASTER GLOBAL
root MASTER
chest root
L_mid_tent01 root
R_mid_tent01 root
spine01 root
Bip01_Neck chest
L_humerus chest
R_humerus chest
weapon_bone chest
Bip01_Head Bip01_Neck
eye_left_bone Bip01_Head
eye_right_bone Bip01_Head
L_forearm L_humerus
L_front_hand L_forearm
L_weapon_bone L_forearm
L_front_hand01_01 L_front_hand
L_front_hand02_01 L_front_hand
L_front_hand03_01 L_front_hand
L_front_hand01_02 L_front_hand01_01
L_front_hand02_02 L_front_hand02_01
L_front_hand03_02 L_front_hand03_01
R_forearm R_humerus
R_front_hand R_forearm
R_weapon_bone R_forearm
R_front_hand01_01 R_front_hand
R_front_hand02_01 R_front_hand
R_front_hand03_01 R_front_hand
R_front_hand01_02 R_front_hand01_01
R_front_hand02_02 R_front_hand02_01
R_front_hand03_02 R_front_hand03_01
null_rope01_connect L_mid_tent01
Rope1_Seg01 null_rope01_connect
Rope1_Seg02 Rope1_Seg01
Rope1_Seg03 Rope1_Seg02
Rope1_Seg04 Rope1_Seg03
Rope1_Seg05 Rope1_Seg04
Rope1_Seg06 Rope1_Seg05
Rope1_Seg07 Rope1_Seg06
Rope1_Seg09 Rope1_Seg07
L_mid_hand01 Rope1_Seg09
L_mid_hand02 Rope1_Seg09
L_mid_hand03 Rope1_Seg09
null_rope02_connect R_mid_tent01
Rope2_Seg01 null_rope02_connect
Rope2_Seg02 Rope2_Seg01
Rope2_Seg03 Rope2_Seg02
Rope2_Seg04 Rope2_Seg03
Rope2_Seg05 Rope2_Seg04
Rope2_Seg06 Rope2_Seg05
Rope2_Seg07 Rope2_Seg06
Rope2_Seg09 Rope2_Seg07
R_mid_hand01 Rope2_Seg09
R_mid_hand02 Rope2_Seg09
R_mid_hand03 Rope2_Seg09
spine02 spine01
spine03 spine02
pelvis spine03
null_rope03_connect pelvis
null_rope04_connect pelvis
Rope3_Seg01 null_rope03_connect
Rope3_Seg02 Rope3_Seg01
Rope3_Seg03 Rope3_Seg02
Rope3_Seg04 Rope3_Seg03
Rope3_Seg05 Rope3_Seg04
Rope3_Seg06 Rope3_Seg05
Rope3_Seg07 Rope3_Seg06
Rope3_Seg08 Rope3_Seg07
Rope3_Seg09 Rope3_Seg08
R_rear_hand01 Rope3_Seg09
R_rear_hand02 Rope3_Seg09
R_rear_hand03 Rope3_Seg09
Rope4_Seg01 null_rope04_connect
Rope4_Seg02 Rope4_Seg01
Rope4_Seg03 Rope4_Seg02
Rope4_Seg04 Rope4_Seg03
Rope4_Seg05 Rope4_Seg04
Rope4_Seg06 Rope4_Seg05
Rope4_Seg07 Rope4_Seg06
Rope4_Seg08 Rope4_Seg07
Rope4_Seg09 Rope4_Seg08
L_rear_hand01 Rope4_Seg09
L_rear_hand02 Rope4_Seg09
L_rear_hand03 Rope4_Seg09
[BasePosition]
#SegmentName Tx, Ty, Tz, Rx, Ry, Rz, BoneLength
MASTER 0.000000 0.000000 0.000000 -90.000000 0.000000 0.000000 10.000000 
root 0.000000 0.000000 0.000000 0.000000 0.000000 0.000000 10.000000 
chest 0.000000 0.000000 0.000000 0.000000 0.000000 0.000000 10.000000 
L_mid_tent01 0.000000 0.000000 0.000000 0.000000 0.000000 0.000000 10.000000 
R_mid_tent01 0.000000 0.000000 0.000000 0.000000 0.000000 0.000000 10.000000 
spine01 0.000000 0.000000 0.000000 0.000000 0.000000 0.000000 10.000000 
Bip01_Neck 0.000000 0.000000 0.000000 0.000000 0.000000 0.000000 10.000000 
L_humerus 0.000000 0.000000 0.000000 0.000000 0.000000 0.000000 10.000000 
R_humerus 0.000000 0.000000 0.000000 0.000000 0.000000 0.000000 10.000000 
weapon_bone 0.000000 0.000000 0.000000 0.000000 0.000000 0.000000 10.000000 
Bip01_Head 0.000000 0.000000 0.000000 0.000000 0.000000 0.000000 10.000000 
eye_left_bone 0.000000 0.000000 0.000000 0.000000 0.000000 0.000000 10.000000 
eye_right_bone 0.000000 0.000000 0.000000 0.000000 0.000000 0.000000 10.000000 
L_forearm 0.000000 0.000000 0.000000 0.000000 0.000000 0.000000 10.000000 
L_front_hand 0.000000 0.000000 0.000000 0.000000 0.000000 0.000000 10.000000 
L_weapon_bone 0.000000 0.000000 0.000000 0.000000 0.000000 0.000000 10.000000 
L_front_hand01_01 0.000000 0.000000 0.000000 0.000000 0.000000 0.000000 10.000000 
L_front_hand02_01 0.000000 0.000000 0.000000 0.000000 0.000000 0.000000 10.000000 
L_front_hand03_01 0.000000 0.000000 0.000000 0.000000 0.000000 0.000000 10.000000 
L_front_hand01_02 0.000000 0.000000 0.000000 0.000000 0.000000 0.000000 10.000000 
L_front_hand02_02 0.000000 0.000000 0.000000 0.000000 0.000000 0.000000 10.000000 
L_front_hand03_02 0.000000 0.000000 0.000000 0.000000 0.000000 0.000000 10.000000 
R_forearm 0.000000 0.000000 0.000000 0.000000 0.000000 0.000000 10.000000 
R_front_hand 0.000000 0.000000 0.000000 0.000000 0.000000 0.000000 10.000000 
R_weapon_bone 0.000000 0.000000 0.000000 0.000000 0.000000 0.000000 10.000000 
R_front_hand01_01 0.000000 0.000000 0.000000 0.000000 0.000000 0.000000 10.000000 
R_front_hand02_01 0.000000 0.000000 0.000000 0.000000 0.000000 0.000000 10.000000 
R_front_hand03_01 0.000000 0.000000 0.000000 0.000000 0.000000 0.000000 10.000000 
R_front_hand01_02 0.000000 0.000000 0.000000 0.000000 0.000000 0.000000 10.000000 
R_front_hand02_02 0.000000 0.000000 0.000000 0.000000 0.000000 0.000000 10.000000 
R_front_hand03_02 0.000000 0.000000 0.000000 0.000000 0.000000 0.000000 10.000000 
null_rope01_connect 0.000000 0.000000 0.000000 0.000000 0.000000 0.000000 10.000000 
Rope1_Seg01 0.000000 0.000000 0.000000 0.000000 0.000000 0.000000 10.000000 
Rope1_Seg02 0.000000 0.000000 0.000000 0.000000 0.000000 0.000000 10.000000 
Rope1_Seg03 0.000000 0.000000 0.000000 0.000000 0.000000 0.000000 10.000000 
Rope1_Seg04 0.000000 0.000000 0.000000 0.000000 0.000000 0.000000 10.000000 
Rope1_Seg05 0.000000 0.000000 0.000000 0.000000 0.000000 0.000000 10.000000 
Rope1_Seg06 0.000000 0.000000 0.000000 0.000000 0.000000 0.000000 10.000000 
Rope1_Seg07 0.000000 0.000000 0.000000 0.000000 0.000000 0.000000 10.000000 
Rope1_Seg09 0.000000 0.000000 0.000000 0.000000 0.000000 0.000000 10.000000 
L_mid_hand01 0.000000 0.000000 0.000000 0.000000 0.000000 0.000000 10.000000 
L_mid_hand02 0.000000 0.000000 0.000000 0.000000 0.000000 0.000000 10.000000 
L_mid_hand03 0.000000 0.000000 0.000000 0.000000 0.000000 0.000000 10.000000 
null_rope02_connect 0.000000 0.000000 0.000000 0.000000 0.000000 0.000000 10.000000 
Rope2_Seg01 0.000000 0.000000 0.000000 0.000000 0.000000 0.000000 10.000000 
Rope2_Seg02 0.000000 0.000000 0.000000 0.000000 0.000000 0.000000 10.000000 
Rope2_Seg03 0.000000 0.000000 0.000000 0.000000 0.000000 0.000000 10.000000 
Rope2_Seg04 0.000000 0.000000 0.000000 0.000000 0.000000 0.000000 10.000000 
Rope2_Seg05 0.000000 0.000000 0.000000 0.000000 0.000000 0.000000 10.000000 
Rope2_Seg06 0.000000 0.000000 0.000000 0.000000 0.000000 0.000000 10.000000 
Rope2_Seg07 0.000000 0.000000 0.000000 0.000000 0.000000 0.000000 10.000000 
Rope2_Seg09 0.000000 0.000000 0.000000 0.000000 0.000000 0.000000 10.000000 
R_mid_hand01 0.000000 0.000000 0.000000 0.000000 0.000000 0.000000 10.000000 
R_mid_hand02 0.000000 0.000000 0.000000 0.000000 0.000000 0.000000 10.000000 
R_mid_hand03 0.000000 0.000000 0.000000 0.000000 0.000000 0.000000 10.000000 
spine02 0.000000 0.000000 0.000000 0.000000 0.000000 0.000000 10.000000 
spine03 0.000000 0.000000 0.000000 0.000000 0.000000 0.000000 10.000000 
pelvis 0.000000 0.000000 0.000000 0.000000 0.000000 0.000000 10.000000 
null_rope03_connect 0.000000 0.000000 0.000000 0.000000 0.000000 0.000000 10.000000 
null_rope04_connect 0.000000 0.000000 0.000000 0.000000 0.000000 0.000000 10.000000 
Rope3_Seg01 0.000000 0.000000 0.000000 0.000000 0.000000 0.000000 10.000000 
Rope3_Seg02 0.000000 0.000000 0.000000 0.000000 0.000000 0.000000 10.000000 
Rope3_Seg03 0.000000 0.000000 0.000000 0.000000 0.000000 0.000000 10.000000 
Rope3_Seg04 0.000000 0.000000 0.000000 0.000000 0.000000 0.000000 10.000000 
Rope3_Seg05 0.000000 0.000000 0.000000 0.000000 0.000000 0.000000 10.000000 
Rope3_Seg06 0.000000 0.000000 0.000000 0.000000 0.000000 0.000000 10.000000 
Rope3_Seg07 0.000000 0.000000 0.000000 0.000000 0.000000 0.000000 10.000000 
Rope3_Seg08 0.000000 0.000000 0.000000 0.000000 0.000000 0.000000 10.000000 
Rope3_Seg09 0.000000 0.000000 0.000000 0.000000 0.000000 0.000000 10.000000 
R_rear_hand01 0.000000 0.000000 0.000000 0.000000 0.000000 0.000000 10.000000 
R_rear_hand02 0.000000 0.000000 0.000000 0.000000 0.000000 0.000000 10.000000 
R_rear_hand03 0.000000 0.000000 0.000000 0.000000 0.000000 0.000000 10.000000 
Rope4_Seg01 0.000000 0.000000 0.000000 0.000000 0.000000 0.000000 10.000000 
Rope4_Seg02 0.000000 0.000000 0.000000 0.000000 0.000000 0.000000 10.000000 
Rope4_Seg03 0.000000 0.000000 0.000000 0.000000 0.000000 0.000000 10.000000 
Rope4_Seg04 0.000000 0.000000 0.000000 0.000000 0.000000 0.000000 10.000000 
Rope4_Seg05 0.000000 0.000000 0.000000 0.000000 0.000000 0.000000 10.000000 
Rope4_Seg06 0.000000 0.000000 0.000000 0.000000 0.000000 0.000000 10.000000 
Rope4_Seg07 0.000000 0.000000 0.000000 0.000000 0.000000 0.000000 10.000000 
Rope4_Seg08 0.000000 0.000000 0.000000 0.000000 0.000000 0.000000 10.000000 
Rope4_Seg09 0.000000 0.000000 0.000000 0.000000 0.000000 0.000000 10.000000 
L_rear_hand01 0.000000 0.000000 0.000000 0.000000 0.000000 0.000000 10.000000 
L_rear_hand02 0.000000 0.000000 0.000000 0.000000 0.000000 0.000000 10.000000 
L_rear_hand03 0.000000 0.000000 0.000000 0.000000 0.000000 0.000000 10.000000 
#Beginning of Data. Separated by tabs
#Fr	Tx	Ty	Tz	Rx	Ry	Rz	SF
[MASTER]
3 0.000000 0.000000 0.000000 0.001660 0.001660 0.001660 0.000000
4 0.000000 0.000000 0.000000 0.001660 0.001660 0.001660 0.000000
[root]
3 -16.502293 -61.510056 1499.060669 -90.226250 -28.297359 -87.125687 1500.412720
4 -16.502293 -59.953136 1497.946045 -92.202721 -22.671021 -90.709404 1499.236084
[chest]
3 -84.512650 -34.090519 0.000000 -6.059319 0.086060 157.048828 91.129311
4 -84.512650 -34.090519 0.000000 -8.139997 -0.647973 150.545181 91.129311
[L_mid_tent01]
3 27.299257 22.178196 -249.918381 0.353361 14.985002 69.943573 252.381302
4 27.299252 22.178234 -249.918396 0.688135 4.196842 71.327698 252.381317
[R_mid_tent01]
3 23.228794 24.509907 226.238495 169.383728 -20.768610 68.996536 228.744751
4 23.228794 24.509907 226.238495 171.441574 -25.223787 62.099098 228.744751
[spine01]
3 -0.361383 -0.195265 0.000000 0.001890 0.001393 17.222752 0.410763
4 -0.361383 -0.195265 0.000000 0.001892 0.001389 17.432676 0.410763
[Bip01_Neck]
3 165.484543 71.581718 0.000119 176.643677 -1.657967 43.431911 180.302734
4 165.484543 71.581718 0.000119 176.643677 -1.657967 43.431911 180.302734
[L_humerus]
3 -13.983130 -135.272980 -120.471481 171.290161 47.840340 -90.445000 181.680161
4 -13.983130 -135.272980 -120.471481 172.770432 31.706161 -87.161407 181.680161
[R_humerus]
3 -13.983309 -135.273102 125.287651 -178.133255 -44.509811 -80.647026 184.909012
4 -13.983309 -135.273102 125.287651 -178.317490 -29.432890 -79.499214 184.909012
[weapon_bone]
3 235.964890 -300.705902 0.000000 0.000000 -89.951546 -128.212341 382.234833
4 235.964890 -300.705902 0.000000 0.000000 -89.951546 -128.212341 382.234833
[Bip01_Head]
3 213.444305 185.715561 11.776926 4.962490 2.797846 -43.898743 283.173859
4 213.444290 185.715561 11.776926 4.962490 2.797846 -43.898743 283.173859
[eye_left_bone]
3 -24.626970 125.451866 -64.772606 0.000000 -90.000000 -99.840431 143.318359
4 -24.626970 125.451866 -64.772606 0.000000 -90.000000 -99.840431 143.318359
[eye_right_bone]
3 -24.626970 125.451866 64.327362 0.000000 -89.972023 80.156387 143.117676
4 -24.626970 125.451866 64.327362 0.000000 -89.965736 80.156380 143.117676
[L_forearm]
3 322.776093 0.000000 -0.000119 0.000260 -0.002333 -102.740669 322.776093
4 322.776093 0.000000 -0.000119 0.000316 -0.002326 -105.493759 322.776093
[L_front_hand]
3 241.149185 -0.042021 -3.300071 178.472122 -1.840965 -31.510191 241.171753
4 241.149185 -0.042021 -3.300071 175.510864 -1.972081 -32.298752 241.171753
[L_weapon_bone]
3 156.183838 0.000000 0.000000 0.000014 0.000007 0.000001 156.183838
4 156.183838 0.000000 0.000000 0.000014 0.000007 0.000001 156.183838
[L_front_hand01_01]
3 86.095154 20.947098 -0.655860 -0.366594 -0.477154 75.385582 88.609184
4 86.095154 20.947098 -0.655860 -0.366594 -0.477154 75.385574 88.609184
[L_front_hand02_01]
3 86.935165 -11.437475 24.513514 154.399796 -59.883835 -61.369587 91.046425
4 86.935165 -11.437475 24.513514 154.399796 -59.883835 -61.369587 91.046425
[L_front_hand03_01]
3 86.637497 -14.123976 -20.424902 -153.913849 58.118130 -62.702866 90.126129
4 86.637497 -14.123976 -20.424902 -153.913849 58.118122 -62.702866 90.126129
[L_front_hand01_02]
3 71.020905 -0.000179 0.000030 0.000334 -0.002323 -106.379684 71.020905
4 71.020905 -0.000179 0.000030 0.000334 -0.002323 -106.379684 71.020905
[L_front_hand02_02]
3 71.020927 -0.000119 0.000060 0.000334 -0.002323 -106.379684 71.020927
4 71.020927 -0.000119 0.000060 0.000334 -0.002323 -106.379684 71.020927
[L_front_hand03_02]
3 71.020905 -0.000060 0.000060 0.000334 -0.002323 -106.379684 71.020905
4 71.020905 -0.000060 0.000060 0.000334 -0.002323 -106.379684 71.020905
[R_forearm]
3 322.776428 -0.000060 0.000030 0.206957 0.039278 -101.340759 322.776428
4 322.776428 -0.000060 0.000030 0.208973 0.048232 -104.145363 322.776428
[R_front_hand]
3 238.847015 -0.006795 2.210259 1.260924 -10.703113 -31.149622 238.857239
4 238.847015 -0.006795 2.210259 4.423791 -10.554705 -32.082756 238.857239
[R_weapon_bone]
3 155.664093 0.002503 -0.000030 0.003487 0.001180 -90.988930 155.664078
4 155.664093 0.002503 -0.000030 0.003487 0.001180 -90.988930 155.664078
[R_front_hand01_01]
3 87.624611 14.231146 22.918642 -154.633499 -59.950619 61.746044 91.683487
4 87.624611 14.231146 22.918642 -154.633499 -59.950619 61.746044 91.683487
[R_front_hand02_01]
3 89.356956 14.367283 -19.491137 154.602661 58.302849 63.744389 92.579636
4 89.356956 14.367283 -19.491137 154.602661 58.302849 63.744389 92.579636
[R_front_hand03_01]
3 87.286232 -22.307278 -0.143439 0.162155 -0.423168 -75.767906 90.091743
4 87.286232 -22.307278 -0.143439 0.162155 -0.423168 -75.767921 90.091743
[R_front_hand01_02]
3 71.020905 0.000060 0.000119 0.002323 -0.000334 106.381714 71.020905
4 71.020905 0.000060 0.000119 0.002323 -0.000334 106.381714 71.020905
[R_front_hand02_02]
3 71.020844 -0.000030 -0.000119 0.002323 -0.000334 106.381714 71.020836
4 71.020844 -0.000030 -0.000119 0.002323 -0.000334 106.381714 71.020836
[R_front_hand03_02]
3 71.020905 0.000000 0.000030 0.002323 -0.000334 106.381714 71.020905
4 71.020905 0.000000 0.000030 0.002323 -0.000334 106.381714 71.020905
[null_rope01_connect]
3 328.732483 0.000000 -0.000238 -138.566284 -76.853806 -172.769043 328.732483
4 328.732483 0.000000 -0.000238 -134.273941 -83.228249 175.651947 328.732483
[Rope1_Seg01]
3 -0.000035 -0.000070 0.000140 72.236839 19.286219 -122.605370 0.000161
4 -0.000034 -0.000067 0.000134 109.227020 9.582026 -154.118256 0.000154
[Rope1_Seg02]
3 139.999863 -0.000179 0.000000 68.351181 -10.050718 -9.263900 139.999863
4 139.999863 -0.000179 0.000000 5.988247 -6.905491 0.270144 139.999863
[Rope1_Seg03]
3 139.999924 0.000060 -0.000060 8.622938 -28.438259 17.118025 139.999924
4 139.999924 0.000060 -0.000060 6.771029 -11.694358 1.718037 139.999924
[Rope1_Seg04]
3 139.999924 -0.000060 -0.000119 -4.195183 -29.170561 26.066252 139.999924
4 139.999924 -0.000060 -0.000119 4.226884 -19.753262 7.223870 139.999924
[Rope1_Seg05]
3 139.999832 0.000119 -0.000060 -3.032699 -24.861717 7.219315 139.999832
4 139.999832 0.000119 -0.000060 -0.379662 -28.048519 9.798779 139.999832
[Rope1_Seg06]
3 139.999954 0.000119 -0.000060 -3.691015 -13.570091 4.263734 139.999954
4 139.999954 0.000119 -0.000060 -6.484867 -27.526558 4.978339 139.999954
[Rope1_Seg07]
3 139.999985 0.000060 0.000000 -2.540455 -6.938627 2.039061 139.999985
4 139.999985 0.000060 0.000000 -6.193522 -13.975916 1.774511 139.999985
[Rope1_Seg09]
3 121.602913 0.000119 -0.000089 -89.793175 -1.359789 0.847147 121.602913
4 121.602913 0.000119 -0.000089 -89.793175 -1.359789 0.847147 121.602913
[L_mid_hand01]
3 103.859421 1.038730 8.195221 127.008408 -65.676300 -35.012211 104.187431
4 103.859421 1.038730 8.195221 128.844925 -66.712723 -37.020279 104.187431
[L_mid_hand02]
3 105.572853 -4.139662 -10.864139 -166.682281 42.892521 -70.228371 106.211075
4 105.572853 -4.139662 -10.864139 -167.882584 43.183556 -71.986374 106.211075
[L_mid_hand03]
3 104.641464 17.579376 -3.913581 -6.788666 17.538548 72.343208 106.179977
4 104.641464 17.579376 -3.913581 -6.373020 17.687300 73.717346 106.179977
[null_rope02_connect]
3 328.732849 0.000179 -0.000119 -101.143196 64.119888 27.765829 328.732849
4 328.732849 0.000179 -0.000119 -106.978241 65.577972 20.862171 328.732849
[Rope2_Seg01]
3 0.000095 0.000153 0.000006 0.863184 -5.288243 -31.855129 0.000180
4 0.000095 0.000153 0.000009 -16.894371 4.466789 -29.227472 0.000180
[Rope2_Seg02]
3 139.999741 -0.000060 -0.000119 -31.177969 8.663713 14.470644 139.999756
4 139.999741 -0.000060 -0.000119 -31.171877 2.465038 15.555725 139.999756
[Rope2_Seg03]
3 140.000107 0.000030 0.000000 -27.850262 -0.464983 27.154118 140.000107
4 140.000107 0.000030 0.000000 -18.530106 -8.285836 20.632502 140.000107
[Rope2_Seg04]
3 139.999802 0.000000 -0.000060 -10.365540 -11.695906 20.963358 139.999802
4 139.999802 0.000000 -0.000060 -6.830948 -12.182045 14.817614 139.999802
[Rope2_Seg05]
3 139.999985 -0.000060 0.000119 -3.080183 -8.762095 12.307662 139.999985
4 139.999985 -0.000060 0.000119 -2.850249 -10.298459 10.804019 139.999985
[Rope2_Seg06]
3 139.999893 -0.000030 -0.000119 -1.665091 -10.340492 15.013748 139.999893
4 139.999893 -0.000030 -0.000119 -2.291152 -14.460701 15.092992 139.999893
[Rope2_Seg07]
3 139.999893 0.000060 -0.000060 1.029958 -10.419011 15.230029 139.999893
4 139.999893 0.000060 -0.000060 0.411093 -13.429609 13.796129 139.999893
[Rope2_Seg09]
3 121.338966 0.000089 -0.000060 33.793236 -1.359788 -0.847141 121.338966
4 121.338966 0.000089 -0.000060 33.793236 -1.359788 -0.847141 121.338966
[R_mid_hand01]
3 104.680779 11.144459 -10.335981 -18.460539 44.531563 67.275063 105.778534
4 104.680779 11.144459 -10.335981 -17.254469 44.921875 68.987289 105.778534
[R_mid_hand02]
3 104.070427 2.443552 8.231699 52.565647 -65.920616 35.485355 104.424065
4 104.070427 2.443552 8.231699 50.757656 -66.920883 37.459167 104.424065
[R_mid_hand03]
3 106.028137 -11.221827 -5.996406 -176.446564 15.418314 -74.140053 106.788818
4 106.028137 -11.221827 -5.996406 -176.797501 15.492968 -75.452667 106.788818
[spine02]
3 129.756927 0.001550 0.000119 -0.946864 -4.121688 5.699757 129.756927
4 129.756927 0.001550 0.000119 -0.908354 -4.191736 5.099535 129.756927
[spine03]
3 78.613907 0.085004 -4.898932 1.088756 4.456249 4.891177 78.766449
4 78.613914 0.084857 -4.898935 1.118693 4.570895 5.265265 78.766457
[pelvis]
3 169.435242 0.051022 0.000000 0.016625 -0.061481 -9.366009 169.435257
4 169.435242 0.051022 0.000000 0.017808 -0.016832 -8.606979 169.435257
[null_rope03_connect]
3 -1.257226 -2.466202 137.391083 99.276695 -87.571991 0.676166 137.418976
4 -1.257226 -2.466202 137.391083 -137.992874 -87.011810 -128.439713 137.418976
[null_rope04_connect]
3 -1.259640 -2.480268 -137.844437 99.276695 -87.571991 0.676166 137.872513
4 -1.259640 -2.480268 -137.844437 -137.992874 -87.011810 -128.439713 137.872513
[Rope3_Seg01]
3 -0.000037 0.000000 -0.000012 -166.827545 -38.844620 -29.405731 0.000039
4 -0.000037 0.000000 -0.000018 -154.185272 -35.789532 -42.090599 0.000041
[Rope3_Seg02]
3 139.999924 -0.000119 0.000060 -20.396866 9.955674 -13.798967 139.999924
4 139.999924 -0.000119 0.000060 -13.509927 6.999807 -14.074919 139.999924
[Rope3_Seg03]
3 139.999924 -0.000119 0.000119 -33.831810 28.344017 -15.541857 139.999924
4 139.999924 -0.000119 0.000119 -30.526186 19.428732 -19.954893 139.999924
[Rope3_Seg04]
3 139.999924 0.000119 0.000000 -9.192163 29.592594 4.941535 139.999924
4 139.999924 0.000119 0.000000 -18.725121 28.037355 -5.208399 139.999924
[Rope3_Seg05]
3 139.999924 -0.000238 0.000060 -10.473655 8.705790 -23.457741 139.999924
4 139.999924 -0.000238 0.000060 -15.499931 10.633934 -20.895838 139.999924
[Rope3_Seg06]
3 139.999893 -0.000119 -0.000060 -20.839455 8.061009 -28.436211 139.999893
4 139.999893 -0.000119 -0.000060 -23.722240 10.678227 -23.990267 139.999893
[Rope3_Seg07]
3 139.999771 0.000060 -0.000119 -10.937837 7.972216 -7.739464 139.999771
4 139.999771 0.000060 -0.000119 -10.829107 9.153801 -5.788121 139.999771
[Rope3_Seg08]
3 139.999985 -0.000060 0.000000 -5.137202 4.668002 -3.096796 139.999985
4 139.999985 -0.000060 0.000000 -4.738186 5.195284 -2.071633 139.999985
[Rope3_Seg09]
3 90.185997 -0.000179 -0.000060 89.793228 -1.359877 -0.847183 90.185997
4 90.185997 -0.000179 -0.000060 89.793228 -1.359877 -0.847183 90.185997
[R_rear_hand01]
3 103.366196 -6.073594 -10.757982 -176.562469 24.436451 -71.142044 104.101845
4 103.366196 -6.073594 -10.757982 -177.180405 24.516863 -72.637703 104.101845
[R_rear_hand02]
3 100.509819 12.039542 -7.992327 -14.693279 36.267807 69.111252 101.543350
4 100.509819 12.039542 -7.992327 -13.721433 36.601822 70.754135 101.543350
[R_rear_hand03]
3 101.539970 5.215704 5.435467 73.641991 -69.405350 19.228550 101.819031
4 101.539970 5.215704 5.435467 72.550484 -70.706764 20.388565 101.819031
[Rope4_Seg01]
3 -0.000037 0.000000 -0.000012 79.963120 -46.853382 -137.176041 0.000039
4 -0.000037 0.000000 -0.000018 77.323456 -43.135273 -137.038315 0.000041
[Rope4_Seg02]
3 139.999985 0.000060 0.000119 14.391499 -20.282091 7.583632 139.999985
4 139.999985 0.000060 0.000119 14.113481 -19.560598 7.184287 139.999985
[Rope4_Seg03]
3 139.999924 0.000000 -0.000238 40.768845 -28.364735 21.669483 139.999924
4 139.999924 0.000000 -0.000238 40.590576 -27.705641 22.092957 139.999924
[Rope4_Seg04]
3 139.999985 0.000000 0.000119 29.404398 -4.332571 37.218739 139.999985
4 139.999985 0.000000 0.000119 29.725338 -6.005692 36.115627 139.999985
[Rope4_Seg05]
3 139.999802 -0.000060 -0.000119 7.614259 9.571581 20.450159 139.999802
4 139.999802 -0.000060 -0.000119 9.227189 7.865173 22.812647 139.999802
[Rope4_Seg06]
3 139.999924 0.000000 0.000060 1.113562 3.740564 6.271331 139.999924
4 139.999924 0.000000 0.000060 1.455123 3.835227 7.265634 139.999924
[Rope4_Seg07]
3 139.999802 0.000000 0.000000 0.450665 2.110996 3.418653 139.999802
4 139.999802 0.000000 0.000000 0.555843 2.175101 3.901011 139.999802
[Rope4_Seg08]
3 139.999924 0.000000 0.000119 -1.348867 1.191438 1.896996 139.999924
4 139.999924 0.000000 0.000119 -1.311120 1.223363 2.144371 139.999924
[Rope4_Seg09]
3 90.185791 0.000060 0.000060 -135.617828 2.228885 0.850567 90.185791
4 90.185791 0.000060 0.000060 -135.617828 2.228885 0.850567 90.185791
[L_rear_hand01]
3 101.696655 -8.392275 -7.654577 -14.718358 -36.257187 110.935326 102.329041
4 101.696655 -8.392275 -7.654577 -13.731910 -36.595154 109.269127 102.329041
[L_rear_hand02]
3 102.726799 -1.568258 5.773216 73.658264 69.371582 160.791580 102.900848
4 102.726799 -1.568258 5.773216 72.566826 70.694969 159.630798 102.900848
[L_rear_hand03]
3 104.552910 9.721220 -10.420293 -176.542313 -24.437103 -108.899315 105.519653
4 104.552910 9.721220 -10.420293 -177.172852 -24.512310 -107.383331 105.519653
